<svg width="30" height="30" viewBox="0 0 30 30" fill="none" xmlns="http://www.w3.org/2000/svg">
<path d="M27.5391 7.85156L27.6094 7.80469C27.4687 7.54687 27.2578 7.3125 27.0469 7.19531L15.7266 0.679688C15.5391 0.5625 15.2812 0.515625 15 0.515625C14.7187 0.515625 14.4609 0.585938 14.2734 0.679688L3.02344 7.21875C2.625 7.45312 2.34375 8.03906 2.34375 8.48437V21.5391C2.34375 21.7969 2.39062 22.0781 2.55469 22.3359L2.50781 22.3594C2.625 22.5469 2.78906 22.7109 2.95312 22.8047L14.25 29.3437C14.4375 29.4609 14.6953 29.5078 14.9766 29.5078C15.2578 29.5078 15.5156 29.4375 15.7031 29.3437L26.9531 22.8047C27.3516 22.5703 27.6328 21.9844 27.6328 21.5391V8.46094C27.6562 8.27344 27.6328 8.0625 27.5391 7.85156ZM15 24.2578C9.89062 24.2578 5.74219 20.1094 5.74219 15C5.74219 9.89062 9.89062 5.74219 15 5.74219C18.4453 5.74219 21.4453 7.64062 23.0391 10.4297L19.9922 12.1875C19.0078 10.4297 17.1328 9.25781 15 9.25781C11.8359 9.25781 9.25781 11.8359 9.25781 15C9.25781 18.1641 11.8359 20.7422 15 20.7422C17.1328 20.7422 19.0078 19.5703 19.9922 17.8359L23.0156 19.6172C21.4219 22.3828 18.4219 24.2578 15 24.2578ZM26.9531 14.5312H26.2031L25.9922 15.4687H26.9531V16.6406H25.7812L25.5 18.0469H24.3516L24.6328 16.6406H23.7422L23.4609 18.0469H22.3359L22.6172 16.6406H22.0312V15.4687H22.8516L23.0625 14.5312H22.0312V13.3594H23.2734L23.5547 11.9531H24.7031L24.4219 13.3594H25.3125L25.5937 11.9531H26.7187L26.4375 13.3594H26.9531V14.5312ZM23.9766 15.4687H24.8672L25.0781 14.5312H24.1875L23.9766 15.4687Z" fill="white" fill-opacity="0.5"/>
</svg>
