<svg width="30" height="30" viewBox="0 0 30 30" fill="none" xmlns="http://www.w3.org/2000/svg">
<path d="M29.2502 12.2109C28.2423 11.625 26.9064 11.5547 25.7814 11.8828C25.6408 10.6641 24.8439 9.60937 23.9064 8.85937L23.5314 8.55469L23.2033 8.92969C22.5705 9.65625 22.383 10.875 22.4767 11.8125C22.547 12.4922 22.758 13.1953 23.1798 13.7578C22.8517 13.9453 22.5001 14.2031 22.172 14.3203C21.5158 14.5547 20.7892 14.7891 20.0861 14.7891H18.5158V11.4844H15.4689V5.625H11.9533V8.4375H6.0939V11.4844H3.04703V14.7656H0.422025L0.37515 15.1172C0.257963 16.6172 0.445463 18.0703 1.07828 19.4531L1.33609 19.9687L1.35953 20.0156C3.21109 23.1562 6.44546 24.4688 9.98453 24.4688C16.8283 24.4688 22.4767 21.3984 25.0548 14.9531C26.7892 15.0469 28.5705 14.5312 29.4142 12.8672L29.6252 12.4453L29.2502 12.2109ZM6.56265 9.14062H8.9064V11.7188H6.56265V9.14062ZM9.63296 19.5C9.63296 19.8984 9.30484 20.2266 8.9064 20.2266C8.50796 20.2266 8.17984 19.8984 8.17984 19.5C8.17984 19.1016 8.50796 18.7734 8.9064 18.7734C9.30484 18.7969 9.63296 19.1016 9.63296 19.5ZM6.56265 12.1875H8.9064V14.7656H6.56265V12.1875ZM3.51578 12.1875H6.0939V14.7656H3.51578V12.1875ZM10.008 23.9531C6.30484 23.9297 4.31265 22.6875 2.67203 21.0469C3.16421 21.0703 3.63296 21.0938 4.05484 21.0938C4.42984 21.0938 4.80484 21.0938 5.1564 21.0703C6.07046 21.0234 6.86734 20.9062 7.52359 20.7188C8.06265 21.9609 9.04703 23.1094 10.8048 23.9531H10.008ZM11.9533 14.7656H9.37515V12.1875H11.9533V14.7656ZM11.9533 11.7188H9.37515V9.14062H11.9533V11.7188ZM15.0002 14.7656H12.422V12.1875H15.0002V14.7656ZM15.0002 11.7188H12.422V9.14062H15.0002V11.7188ZM15.0002 8.67188H12.422V6.09375H15.0002V8.67188ZM18.047 14.7656H15.4689V12.1875H18.047V14.7656ZM9.0939 19.0312C9.04703 19.0078 8.97671 18.9844 8.9064 18.9844C8.62515 18.9844 8.39078 19.2187 8.39078 19.5C8.39078 19.7812 8.62515 20.0156 8.9064 20.0156C9.18765 20.0156 9.42203 19.7812 9.42203 19.5C9.42203 19.4297 9.39859 19.3594 9.37515 19.3125C9.32828 19.3828 9.2814 19.4297 9.18765 19.4297C9.07046 19.4297 8.97671 19.3359 8.97671 19.2188C9.00015 19.125 9.04703 19.0547 9.0939 19.0312Z" fill="white" fill-opacity="0.5"/>
</svg>
