<svg width="30" height="30" viewBox="0 0 30 30" fill="none" xmlns="http://www.w3.org/2000/svg">
<path fill-rule="evenodd" clip-rule="evenodd" d="M15.0001 1.19604C7.18441 1.19604 0.84668 7.53237 0.84668 15.3495C0.84668 21.6031 4.90207 26.9082 10.5257 28.7799C11.2328 28.9111 11.4925 28.4728 11.4925 28.099C11.4925 27.7615 11.4793 26.6466 11.4732 25.4639C7.53574 26.3201 6.70488 23.794 6.70488 23.794C6.06105 22.1581 5.1334 21.7231 5.1334 21.7231C3.84902 20.8446 5.2302 20.8629 5.2302 20.8629C6.65121 20.9625 7.39981 22.3214 7.39981 22.3214C8.66215 24.4847 10.7108 23.8594 11.5185 23.498C11.6455 22.5832 12.0123 21.9586 12.4171 21.6052C9.2734 21.2478 5.96848 20.0339 5.96848 14.6107C5.96848 13.0655 6.5216 11.8029 7.42699 10.8115C7.2798 10.4553 6.79535 9.01573 7.56387 7.0662C7.56387 7.0662 8.75215 6.68581 11.4568 8.51698C12.5861 8.20315 13.7971 8.04542 15.0001 8.04003C16.2025 8.04542 17.4142 8.20269 18.5455 8.51651C21.2469 6.68534 22.4338 7.06573 22.4338 7.06573C23.2042 9.01503 22.7197 10.4548 22.5728 10.811C23.4803 11.8025 24.0294 13.065 24.0294 14.6103C24.0294 20.0464 20.7184 21.2431 17.5668 21.5937C18.0746 22.0329 18.527 22.8945 18.527 24.2147C18.527 26.1085 18.5106 27.6326 18.5106 28.0988C18.5106 28.4754 18.7656 28.9168 19.4828 28.7778C25.1031 26.9042 29.1538 21.6007 29.1538 15.3495C29.1536 7.53284 22.8165 1.19628 15.0001 1.19628V1.19604Z" fill="white" fill-opacity="0.5"/>
<path d="M6.20743 21.5172C6.17625 21.5875 6.06563 21.6086 5.96485 21.5605C5.86172 21.5146 5.8043 21.4187 5.83758 21.3482C5.86805 21.2755 5.97891 21.2556 6.08133 21.3041C6.18446 21.3503 6.24305 21.4471 6.20719 21.5174L6.20743 21.5172ZM6.78071 22.1568C6.71344 22.2194 6.58149 22.1903 6.49196 22.0912C6.39915 21.9927 6.3818 21.8608 6.45047 21.7973C6.52032 21.7349 6.64829 21.7644 6.7411 21.8629C6.83344 21.9627 6.85172 22.0935 6.78094 22.157L6.78071 22.1568ZM7.33899 22.9717C7.25227 23.0322 7.11024 22.9757 7.02258 22.8498C6.93586 22.7237 6.93586 22.5726 7.02493 22.5123C7.11235 22.4519 7.25227 22.5065 7.34133 22.6312C7.42758 22.7589 7.42758 22.9101 7.33899 22.9715V22.9717ZM8.10329 23.7594C8.02594 23.845 7.86047 23.822 7.73954 23.7055C7.61602 23.5914 7.58157 23.429 7.65915 23.3437C7.7379 23.2579 7.90407 23.2818 8.02571 23.3976C8.14922 23.5115 8.18649 23.6741 8.10375 23.7592L8.10329 23.7594ZM9.15797 24.2167C9.12352 24.3276 8.96461 24.378 8.80407 24.3306C8.64399 24.2821 8.53922 24.1525 8.57204 24.0405C8.60485 23.9287 8.76493 23.8764 8.92641 23.9268C9.08649 23.9751 9.19125 24.104 9.15797 24.2167ZM10.3165 24.3013C10.3205 24.418 10.1845 24.5146 10.0165 24.5169C9.84704 24.5209 9.70993 24.4262 9.70829 24.3114C9.70829 24.1935 9.84141 24.0981 10.0106 24.0948C10.1787 24.0918 10.3167 24.1855 10.3167 24.3011L10.3165 24.3013ZM11.3941 24.118C11.4143 24.2317 11.2973 24.3487 11.1302 24.3798C10.9662 24.4103 10.8138 24.3395 10.7927 24.2268C10.7726 24.1101 10.8916 23.9931 11.0557 23.9629C11.2231 23.934 11.3731 24.0027 11.3941 24.1183V24.118Z" fill="white" fill-opacity="0.5"/>
</svg>
