<svg width="30" height="30" viewBox="0 0 30 30" fill="none" xmlns="http://www.w3.org/2000/svg">
<path d="M12.3236 15.8946C12.3236 15.8946 11.5539 16.3425 12.8723 16.4939C14.4693 16.6763 15.2856 16.65 17.0453 16.3174C17.0453 16.3174 17.5091 16.6074 18.1551 16.8586C14.2091 18.5492 9.22444 16.7606 12.3236 15.8946ZM11.841 13.688C11.841 13.688 10.9776 14.3276 12.2969 14.464C14.0031 14.64 15.3501 14.6546 17.6826 14.2055C17.6826 14.2055 18.0044 14.5327 18.5113 14.711C13.7413 16.1065 8.42827 14.821 11.841 13.688Z" fill="white" fill-opacity="0.5"/>
<path d="M15.9057 9.94481C16.8786 11.0646 15.6507 12.0715 15.6507 12.0715C15.6507 12.0715 18.1193 10.7972 16.9857 9.2009C15.9265 7.71285 15.1149 6.97387 19.5101 4.4248C19.5104 4.4248 12.6106 6.14746 15.9057 9.94481Z" fill="white" fill-opacity="0.5"/>
<path d="M21.1247 17.5268C21.1247 17.5268 21.6947 17.9967 20.497 18.36C18.2198 19.0498 11.0179 19.2579 9.01754 18.3875C8.29895 18.0746 9.64731 17.6405 10.0713 17.5493C10.5136 17.4535 10.7662 17.471 10.7662 17.471C9.96653 16.9078 5.59707 18.5771 8.54692 19.0559C16.5916 20.3597 23.2111 18.4685 21.1247 17.5268ZM12.6942 11.4017C12.6942 11.4017 9.03113 12.2719 11.3972 12.5883C12.3965 12.7219 14.3873 12.6912 16.2431 12.5356C17.7593 12.4083 19.2808 12.1362 19.2808 12.1362C19.2808 12.1362 18.7467 12.3654 18.3597 12.6293C14.6393 13.6078 7.45356 13.152 9.52239 12.1517C11.2715 11.3053 12.6942 11.4017 12.6942 11.4017ZM19.2656 15.0743C23.0472 13.1098 21.2986 11.2217 20.0782 11.476C19.7798 11.5383 19.6457 11.5922 19.6457 11.5922C19.6457 11.5922 19.7571 11.4178 19.9687 11.3431C22.3832 10.4946 24.2397 13.8464 19.1901 15.1739C19.1901 15.1739 19.248 15.1214 19.2656 15.0743Z" fill="white" fill-opacity="0.5"/>
<path d="M16.9859 0.307617C16.9859 0.307617 19.0801 2.4027 14.9994 5.62371C11.727 8.20816 14.2531 9.68145 14.998 11.3654C13.0878 9.64184 11.6867 8.12449 12.6266 6.71262C14.0068 4.64027 17.8306 3.63504 16.9859 0.307617Z" fill="white" fill-opacity="0.5"/>
<path d="M13.0663 20.3999C16.6954 20.6319 22.27 20.2707 22.402 18.5535C22.402 18.5535 22.1484 19.2043 19.4022 19.7209C16.3042 20.304 12.4827 20.2363 10.2168 19.8622C10.2168 19.8622 10.6809 20.2466 13.0663 20.3999Z" fill="white" fill-opacity="0.5"/>
<path d="M22.2342 23.4798H22.1236V23.418H22.4212V23.4798H22.3111V23.7885H22.2339L22.2342 23.4798ZM22.8283 23.4953H22.8269L22.7172 23.7885H22.6666L22.5576 23.4953H22.5564V23.7885H22.4833V23.418H22.5904L22.6914 23.6802L22.7927 23.418H22.8991V23.7885H22.8283V23.4953ZM12.4713 26.9617C12.1291 27.2584 11.7672 27.4253 11.4421 27.4253C10.9795 27.4253 10.7285 27.1473 10.7285 26.7023C10.7285 26.2206 10.9971 25.8679 12.0733 25.8679H12.4711V26.9617H12.4713ZM13.4161 28.0276V24.7284C13.4161 23.8848 12.9349 23.3284 11.7761 23.3284C11.0997 23.3284 10.5068 23.4958 10.0246 23.7086L10.1634 24.2929C10.5431 24.1534 11.0341 24.0241 11.516 24.0241C12.1839 24.0241 12.4711 24.2929 12.4711 24.8493V25.2662H12.1373C10.5152 25.2662 9.78324 25.8955 9.78324 26.8419C9.78324 27.6573 10.2656 28.1207 11.1738 28.1207C11.7574 28.1207 12.1936 27.8798 12.6007 27.527L12.6747 28.0279H13.4161V28.0276ZM16.5689 28.0276H15.3907L13.9725 23.413H15.0016L15.8819 26.2487L16.0776 27.1007C16.522 25.8683 16.837 24.6173 16.9945 23.4133H17.9955C17.7276 24.9323 17.2448 26.6003 16.5689 28.0276ZM21.0895 26.9617C20.7461 27.2584 20.384 27.4253 20.0601 27.4253C19.597 27.4253 19.3462 27.1473 19.3462 26.7023C19.3462 26.2206 19.6155 25.8679 20.6906 25.8679H21.0893V26.9617H21.0895ZM22.0347 28.0276V24.7284C22.0347 23.8848 21.5521 23.3284 20.3943 23.3284C19.7172 23.3284 19.1245 23.4958 18.6424 23.7086L18.7814 24.2929C19.1611 24.1534 19.6528 24.0241 20.1346 24.0241C20.8017 24.0241 21.0895 24.2929 21.0895 24.8493V25.2662H20.7557C19.1332 25.2662 18.4014 25.8955 18.4014 26.8419C18.4014 27.6573 18.8833 28.1207 19.7913 28.1207C20.3751 28.1207 20.8106 27.8798 21.2189 27.527L21.2934 28.0279H22.0347V28.0276ZM8.7473 28.8119C8.47848 29.2054 8.04301 29.5169 7.56676 29.6924L7.10059 29.1428C7.46316 28.9567 7.77371 28.6565 7.91832 28.3766C8.04301 28.1275 8.0948 27.8071 8.0948 27.0405V21.7712H9.09887V26.968C9.09887 27.9934 9.0173 28.408 8.7473 28.8119Z" fill="white" fill-opacity="0.5"/>
</svg>
