<svg width="30" height="30" viewBox="0 0 30 30" fill="none" xmlns="http://www.w3.org/2000/svg">
<path d="M5.74219 11.8359C5.39062 11.8359 5.15625 12.1172 5.15625 12.4688V15.7734L1.42969 12.0234C1.24219 11.8359 0.914062 11.7891 0.679688 11.8828C0.445313 11.9766 0.234375 12.2109 0.234375 12.4688V17.3203C0.234375 17.6719 0.585938 17.9531 0.9375 17.9531C1.28906 17.9531 1.64062 17.6719 1.64062 17.3203V14.0156L5.41406 17.7656C5.53125 17.8828 5.69531 17.9531 5.85938 17.9531C5.92969 17.9531 5.95312 17.9297 6.02344 17.9063C6.25781 17.8125 6.32812 17.5781 6.32812 17.3203V12.4922C6.32812 12.1406 6.09375 11.8359 5.74219 11.8359ZM10.3594 14.6016C10.0312 14.6016 9.72656 14.9297 9.72656 15.2578C9.72656 15.5859 10.0312 15.9141 10.3594 15.9141L11.9062 16.0078L11.5547 16.875H9.5625L8.57812 15.0234L9.58594 13.125H11.7188L12.2109 14.0625H13.5L12.6562 12.2109L12.4688 11.9531H8.8125L8.64844 12.2344L7.26562 14.6484L7.10156 14.9531L7.26562 15.2578L8.625 17.6719L8.8125 18.0469H12.3516L12.5156 17.6484L13.5234 15.5391L13.9688 14.5312H12.9375L10.3594 14.6016ZM15.2344 11.8359C14.9062 11.8359 14.5312 12.1406 14.5312 12.4688V14.0625H15.9375V12.4922C15.9375 12.1406 15.5625 11.8359 15.2344 11.8359ZM22.3594 11.9062C22.125 11.8125 21.7969 11.8594 21.6328 12.0469L17.8125 15.7969V12.4922C17.8125 12.1406 17.5781 11.8594 17.2266 11.8594C16.875 11.8594 16.6406 12.1406 16.6406 12.4922V17.3438C16.6406 17.6016 16.8047 17.8359 17.0391 17.9297C17.1094 17.9531 17.2031 17.9766 17.2734 17.9766C17.4375 17.9766 17.6484 17.9063 17.7656 17.7891L21.5625 14.0391V17.3438C21.5625 17.6953 21.7969 17.9766 22.1484 17.9766C22.5 17.9766 22.7344 17.6953 22.7344 17.3438V12.4922C22.7344 12.2344 22.5938 12 22.3594 11.9062ZM27.4688 14.9062L29.4375 12.9375C29.6953 12.6797 29.6953 12.2813 29.4375 12.0469C29.1797 11.7891 28.7812 11.7891 28.5469 12.0469L26.5781 14.0156L24.6094 12.0469C24.3516 11.7891 23.9531 11.7891 23.7188 12.0469C23.4609 12.3047 23.4609 12.7031 23.7188 12.9375L25.6875 14.9062L23.7188 16.875C23.4609 17.1328 23.4609 17.5313 23.7188 17.7656C23.8359 17.8828 24 17.9531 24.1641 17.9531C24.3281 17.9531 24.4922 17.8828 24.6094 17.7656L26.5781 15.7969L28.5469 17.7656C28.6641 17.8828 28.8281 17.9531 28.9922 17.9531C29.1562 17.9531 29.3203 17.8828 29.4375 17.7656C29.6953 17.5078 29.6953 17.1094 29.4375 16.875L27.4688 14.9062ZM14.5312 17.3203C14.5312 17.6484 14.8828 17.9531 15.2344 17.9531C15.5625 17.9531 15.9375 17.6484 15.9375 17.3203V14.5312H14.5312V17.3203Z" fill="white" fill-opacity="0.5"/>
</svg>
