<svg width="30" height="30" viewBox="0 0 30 30" fill="none" xmlns="http://www.w3.org/2000/svg">
<path d="M15.0001 7.74341C7.09225 7.74341 0.681152 10.9923 0.681152 14.9999C0.681152 19.0075 7.09225 22.2564 15.0001 22.2564C22.9079 22.2564 29.319 19.0075 29.319 14.9999C29.319 10.9923 22.9079 7.74341 15.0001 7.74341ZM11.2742 16.4136C10.9325 16.7333 10.553 16.8653 10.1351 17.0012C9.71725 17.1374 9.18545 17.1093 8.53881 17.1093H7.07326L6.66709 19.453H4.95592L6.48287 11.4843H9.7735C10.7635 11.4843 11.4856 11.769 11.9396 12.2886C12.3936 12.8083 12.53 13.5458 12.349 14.477C12.2743 14.8607 12.1484 15.2174 11.9708 15.5352C11.7867 15.8631 11.5515 16.1596 11.2742 16.4136ZM16.269 17.1093L16.9442 13.7296C17.0211 13.334 16.9929 13.04 16.8596 12.8964C16.726 12.7525 16.4419 12.6561 16.0076 12.6561H14.6506L13.7762 17.1093H12.0783L13.6053 9.37489H15.3031L14.8972 11.4843H16.4096C17.3614 11.4843 18.0176 11.6753 18.3788 12.0072C18.74 12.339 18.8483 12.7937 18.7039 13.5372L17.9935 17.1093H16.269ZM25.7047 14.4894C25.6301 14.8731 25.504 15.2237 25.3266 15.5413C25.149 15.8593 24.9169 16.1502 24.6303 16.4136C24.2886 16.7333 23.9089 16.8653 23.4912 17.0012C23.0736 17.1374 22.5413 17.1093 21.8947 17.1093H20.4291L20.0232 19.453H18.312L19.8387 11.4843H23.1296C24.1196 11.4843 24.8417 11.769 25.2955 12.2886C25.749 12.8083 25.8856 13.5585 25.7047 14.4894ZM22.4811 12.6561H21.309L20.6698 15.9374H21.7109C22.4004 15.9374 22.9147 15.8694 23.2522 15.6093C23.5901 15.3496 23.8177 14.9465 23.9361 14.3387C24.0495 13.7549 23.9979 13.2995 23.7814 13.0595C23.5646 12.8195 23.1312 12.6561 22.4811 12.6561ZM9.12521 12.6561H7.95287L7.31373 15.9374H8.35459C9.04436 15.9374 9.55834 15.8694 9.89607 15.6093C10.2338 15.3496 10.4616 14.9465 10.5797 14.3387C10.6932 13.7549 10.6416 13.2995 10.4251 13.0595C10.2085 12.8195 9.77537 12.6561 9.12521 12.6561Z" fill="white" fill-opacity="0.5"/>
</svg>
