<svg width="30" height="30" viewBox="0 0 30 30" fill="none" xmlns="http://www.w3.org/2000/svg">
<path d="M14.8573 2.87055C13.8678 2.87524 12.9233 2.95938 12.0917 3.10656C9.64247 3.53922 9.19809 4.44484 9.19809 6.11524V8.32094H14.9855V9.05617H7.02591C5.34403 9.05617 3.87122 10.067 3.41044 11.9908C2.87888 14.1951 2.85544 15.5709 3.41044 17.8727C3.82177 19.5862 4.80427 20.8068 6.48638 20.8068H8.47645V18.1626C8.47645 16.2522 10.129 14.5673 12.0919 14.5673H17.8728C19.482 14.5673 20.7664 13.2421 20.7664 11.6263V6.11547C20.7664 4.5468 19.4431 3.36859 17.8728 3.1068C16.8781 2.94133 15.8466 2.86609 14.8573 2.87055ZM11.7275 4.64453C12.3251 4.64453 12.8136 5.1407 12.8136 5.75102C12.8136 6.35875 12.3254 6.85024 11.7275 6.85024C11.1275 6.85024 10.6416 6.35875 10.6416 5.75102C10.6414 5.1407 11.1275 4.64453 11.7275 4.64453Z" fill="white" fill-opacity="0.5"/>
<path d="M21.4882 9.05614V11.6263C21.4882 13.6185 19.7988 15.2954 17.8727 15.2954H12.0918C10.5084 15.2954 9.19824 16.6508 9.19824 18.2366V23.7479C9.19824 25.3161 10.5618 26.2389 12.0918 26.6886C13.9237 27.227 15.6806 27.3245 17.8727 26.6886C19.3296 26.2665 20.7663 25.4176 20.7663 23.7479V21.542H14.9857V20.8065H23.6604C25.3422 20.8065 25.9694 19.6335 26.5544 17.8724C27.1586 16.0595 27.1326 14.316 26.5544 11.9905C26.1386 10.3159 25.3448 9.05591 23.6604 9.05591H21.4882V9.05614ZM18.2367 23.0125C18.8369 23.0125 19.3228 23.504 19.3228 24.1122C19.3228 24.722 18.8367 25.2182 18.2367 25.2182C17.639 25.2182 17.1508 24.722 17.1508 24.1122C17.1508 23.504 17.639 23.0125 18.2367 23.0125Z" fill="white" fill-opacity="0.5"/>
</svg>
