<svg width="258" height="40" viewBox="0 0 258 40" fill="none" xmlns="http://www.w3.org/2000/svg">
<path fill-rule="evenodd" clip-rule="evenodd" d="M39.6377 13.5595L35.2162 13.5766L35.2509 5.09013L9.20352 5.19019L9.20351 5.19498C6.65064 5.20455 4.57251 7.14732 4.53728 9.59764L4.54225 9.59763L4.50792 17.9363L8.87307 17.9193L8.90819 9.43328L30.8132 9.34929L30.7958 13.5925L13.3137 13.6598L13.2959 17.9026L20.0488 17.8764L20.0314 22.1197L13.2781 22.1454L13.2608 26.3879L30.7429 26.3206L30.6941 30.5536L8.82143 30.6478L8.85613 22.1622L0.0702429 22.1955L0.122757 9.61355L0.124417 9.61355C0.182505 4.84751 4.21758 0.97823 9.17565 0.946666L9.1993 0.946213L39.6906 0.830566L39.6377 13.5595ZM4.4381 34.9089L30.4854 34.8088L30.4854 34.804C33.0383 34.7945 35.1169 32.8521 35.1517 30.4014L35.1467 30.4014L35.181 22.0627L24.2957 22.1049L24.3131 17.8617L39.622 17.8035L39.5695 30.3854L39.567 30.3854C39.5089 35.1515 35.4739 39.0208 30.5158 39.0515L30.5158 39.0531L30.4926 39.0532L0 39.1692L0.0528846 26.4411L4.47487 26.4244L4.43934 34.9101L4.4381 34.9089Z" fill="#00FCBF"/>
<path d="M53.1343 18.4026V0.511182H66.5779V4.08946H56.9753V7.66773H64.6574V10.9904H56.9753V14.8243H66.5779V18.4026H53.1343Z" fill="white"/>
<path d="M69.2636 18.4026V0.511182H73.1046V14.8243H81.939V18.4026H69.2636Z" fill="white"/>
<path d="M85.916 16.1789C84.0382 14.3387 83.0993 12.098 83.0993 9.45687C83.0993 6.81576 84.0382 4.5836 85.916 2.76038C87.811 0.920128 90.1582 0 92.9579 0C95.7576 0 98.0964 0.920128 99.9742 2.76038C101.869 4.5836 102.817 6.81576 102.817 9.45687C102.817 12.098 101.869 14.3387 99.9742 16.1789C98.0964 18.0021 95.7576 18.9137 92.9579 18.9137C90.1582 18.9137 87.811 18.0021 85.916 16.1789ZM88.8096 5.23962C87.7341 6.33014 87.1964 7.73589 87.1964 9.45687C87.1964 11.1779 87.7341 12.5921 88.8096 13.6997C89.9022 14.7902 91.285 15.3355 92.9579 15.3355C94.6309 15.3355 96.0051 14.7902 97.0806 13.6997C98.1732 12.5921 98.7195 11.1779 98.7195 9.45687C98.7195 7.73589 98.1732 6.33014 97.0806 5.23962C96.0051 4.13206 94.6309 3.57827 92.9579 3.57827C91.285 3.57827 89.9022 4.13206 88.8096 5.23962Z" fill="white"/>
<path d="M104.605 9.45687C104.605 6.81576 105.544 4.5836 107.422 2.76038C109.317 0.920128 111.664 0 114.464 0C117.263 0 119.602 0.920128 121.48 2.76038C123.375 4.5836 124.322 6.81576 124.322 9.45687C124.322 11.7572 123.571 13.7764 122.069 15.5144C120.584 17.2524 118.689 18.3259 116.384 18.7348V23.6422H112.543V18.7348C110.239 18.3259 108.335 17.2524 106.833 15.5144C105.348 13.7764 104.605 11.7572 104.605 9.45687ZM110.315 5.23962C109.24 6.33014 108.702 7.73589 108.702 9.45687C108.702 11.1779 109.24 12.5921 110.315 13.6997C111.408 14.7902 112.791 15.3355 114.464 15.3355C116.137 15.3355 117.511 14.7902 118.586 13.6997C119.679 12.5921 120.225 11.1779 120.225 9.45687C120.225 7.73589 119.679 6.33014 118.586 5.23962C117.511 4.13206 116.137 3.57827 114.464 3.57827C112.791 3.57827 111.408 4.13206 110.315 5.23962Z" fill="white"/>
<path d="M126.751 11.3738V0.511182H130.592V11.3738C130.592 12.6006 130.933 13.5719 131.616 14.2875C132.316 14.9862 133.255 15.3355 134.433 15.3355C135.611 15.3355 136.541 14.9862 137.224 14.2875C137.924 13.5719 138.274 12.6006 138.274 11.3738V0.511182H142.115V11.3738C142.115 13.6741 141.424 15.5059 140.041 16.869C138.658 18.2322 136.789 18.9137 134.433 18.9137C132.077 18.9137 130.208 18.2322 128.825 16.869C127.442 15.5059 126.751 13.6741 126.751 11.3738Z" fill="white"/>
<path d="M145.309 18.4026V0.511182H158.753V4.08946H149.15V7.66773H156.832V10.9904H149.15V14.8243H158.753V18.4026H145.309Z" fill="white"/>
<path d="M161.438 18.4026V0.511182H166.432L173.473 13.1629H173.73L173.473 10.9904V0.511182H177.314V18.4026H172.321L165.279 5.7508H165.023L165.279 7.92332V18.4026H161.438Z" fill="white"/>
<path d="M179.235 4.08946V0.511182H194.599V4.08946H188.838V18.4026H184.997V4.08946H179.235Z" fill="white"/>
<path d="M202.424 18.4026V0.511182H211.643C213.435 0.511182 214.844 0.945686 215.868 1.8147C216.892 2.68371 217.404 3.78275 217.404 5.11182C217.404 6.38978 216.935 7.3951 215.996 8.1278C215.552 8.43451 215.083 8.66454 214.587 8.81789V8.94569C215.185 9.06496 215.757 9.30352 216.303 9.66134C217.464 10.4281 218.044 11.5953 218.044 13.1629C218.044 14.6965 217.464 15.9574 216.303 16.9457C215.159 17.9169 213.563 18.4026 211.515 18.4026H202.424ZM206.265 7.53994H211.131C211.865 7.53994 212.428 7.37806 212.821 7.05431C213.23 6.71353 213.435 6.27902 213.435 5.7508C213.435 5.22258 213.23 4.79659 212.821 4.47284C212.428 4.13206 211.865 3.96166 211.131 3.96166H206.265V7.53994ZM206.265 14.9521H211.259C212.197 14.9521 212.897 14.7646 213.358 14.3898C213.836 14.0149 214.075 13.5208 214.075 12.9074C214.075 12.2939 213.836 11.7998 213.358 11.4249C212.897 11.0501 212.197 10.8626 211.259 10.8626H206.265V14.9521Z" fill="white"/>
<path d="M220.604 18.4026V0.511182H224.445V18.4026H220.604Z" fill="white"/>
<path d="M226.373 4.08946V0.511182H241.737V4.08946H235.975V18.4026H232.134V4.08946H226.373Z" fill="white"/>
<path d="M242.636 12.7796H246.605C246.759 13.2907 247.006 13.7423 247.348 14.1342C248.099 15.0202 249.217 15.4633 250.702 15.4633C252.921 15.4633 254.031 14.7817 254.031 13.4185C254.031 13.0777 253.912 12.771 253.673 12.4984C253.451 12.2258 253.092 11.9872 252.597 11.7827C252.119 11.5783 251.65 11.4164 251.189 11.2971C250.745 11.1608 250.164 10.9989 249.447 10.8115C249.345 10.7945 249.26 10.7774 249.191 10.7604C249.14 10.7433 249.063 10.7263 248.961 10.7093C248.876 10.6752 248.799 10.6496 248.73 10.6326C245.18 9.78062 243.404 8.06816 243.404 5.49521C243.404 3.96166 244.027 2.66667 245.273 1.61022C246.537 0.536741 248.218 0 250.318 0C253.049 0 255.115 0.920128 256.515 2.76038C257.095 3.57828 257.505 4.48988 257.744 5.49521H253.775C253.673 5.13738 253.476 4.79659 253.186 4.47284C252.537 3.79127 251.581 3.45048 250.318 3.45048C249.345 3.45048 248.611 3.63791 248.116 4.01278C247.621 4.37061 247.373 4.82215 247.373 5.36741C247.373 6.3557 248.5 7.10543 250.753 7.61661C251.334 7.75293 251.692 7.83813 251.829 7.87221C251.982 7.90628 252.332 8 252.879 8.15336C253.442 8.30671 253.818 8.43451 254.005 8.53674C254.21 8.62194 254.543 8.76678 255.004 8.97125C255.482 9.15868 255.815 9.33759 256.003 9.50799C256.208 9.67838 256.464 9.90841 256.771 10.1981C257.095 10.4707 257.326 10.7519 257.462 11.0415C257.599 11.3312 257.718 11.672 257.821 12.0639C257.94 12.4388 258 12.8477 258 13.2907C258 14.8754 257.36 16.213 256.08 17.3035C254.799 18.377 253.007 18.9137 250.702 18.9137C247.663 18.9137 245.436 17.8914 244.019 15.8466C243.353 14.9606 242.892 13.9382 242.636 12.7796Z" fill="white"/>
<path d="M52.4941 37.5719V28.6262H53.2623V32.2684H53.2751C53.4288 31.9532 53.6977 31.672 54.0818 31.4249C54.4744 31.1779 54.9695 31.0543 55.567 31.0543C56.284 31.0543 56.8686 31.3014 57.321 31.7956C57.7734 32.2897 57.9996 32.9585 57.9996 33.8019V37.5719H57.2314V33.8019C57.2314 33.1459 57.0692 32.6433 56.7449 32.294C56.4291 31.9361 55.9937 31.7572 55.4389 31.7572C54.8244 31.7572 54.308 31.9745 53.8897 32.409C53.4715 32.8435 53.2623 33.393 53.2623 34.0575V37.5719H52.4941Z" fill="#6B6B6B"/>
<path d="M59.8955 29.6741C59.7846 29.5634 59.7291 29.4271 59.7291 29.2652C59.7291 29.1033 59.7846 28.967 59.8955 28.8563C60.0065 28.7455 60.1431 28.6901 60.3052 28.6901C60.4674 28.6901 60.604 28.7455 60.7149 28.8563C60.8259 28.967 60.8814 29.1033 60.8814 29.2652C60.8814 29.4271 60.8259 29.5634 60.7149 29.6741C60.604 29.7849 60.4674 29.8403 60.3052 29.8403C60.1431 29.8403 60.0065 29.7849 59.8955 29.6741ZM59.9211 37.5719V31.1821H60.6893V37.5719H59.9211Z" fill="#6B6B6B"/>
<path d="M63.1825 36.754C62.585 36.115 62.2863 35.3227 62.2863 34.377C62.2863 33.4313 62.585 32.6433 63.1825 32.0128C63.78 31.3738 64.5055 31.0543 65.3591 31.0543C65.9651 31.0543 66.4772 31.2034 66.8955 31.5016C67.3137 31.7913 67.6082 32.1108 67.7789 32.4601H67.7917V31.1821H68.5599V40H63.1185V39.2971H67.7917V36.294H67.7789C67.6082 36.6433 67.3137 36.967 66.8955 37.2652C66.4772 37.5549 65.9651 37.6997 65.3591 37.6997C64.5055 37.6997 63.78 37.3845 63.1825 36.754ZM63.7458 32.5112C63.2849 33.0053 63.0545 33.6273 63.0545 34.377C63.0545 35.1268 63.2849 35.753 63.7458 36.2556C64.2153 36.7498 64.7744 36.9968 65.4231 36.9968C66.0547 36.9968 66.6053 36.7498 67.0747 36.2556C67.5527 35.753 67.7917 35.1268 67.7917 34.377C67.7917 33.6273 67.5527 33.0053 67.0747 32.5112C66.6053 32.0085 66.0547 31.7572 65.4231 31.7572C64.7744 31.7572 64.2153 32.0085 63.7458 32.5112Z" fill="#6B6B6B"/>
<path d="M70.6115 37.5719V28.6262H71.3797V32.2684H71.3925C71.5461 31.9532 71.815 31.672 72.1991 31.4249C72.5917 31.1779 73.0868 31.0543 73.6843 31.0543C74.4013 31.0543 74.986 31.3014 75.4384 31.7956C75.8908 32.2897 76.117 32.9585 76.117 33.8019V37.5719H75.3488V33.8019C75.3488 33.1459 75.1866 32.6433 74.8622 32.294C74.5464 31.9361 74.1111 31.7572 73.5563 31.7572C72.9417 31.7572 72.4253 31.9745 72.0071 32.409C71.5888 32.8435 71.3797 33.393 71.3797 34.0575V37.5719H70.6115Z" fill="#6B6B6B"/>
<path d="M77.7824 34.377V33.6102H82.3916V34.377H77.7824Z" fill="#6B6B6B"/>
<path d="M83.4859 31.885V31.1821H84.3822V29.7764H85.1504V31.1821H87.2629V31.885H85.1504V36.869H87.327V37.5719H84.3822V31.885H83.4859Z" fill="#6B6B6B"/>
<path d="M89.2151 36.754C88.6005 36.1236 88.2932 35.3312 88.2932 34.377C88.2932 33.4228 88.6005 32.6305 89.2151 32C89.8296 31.3696 90.5893 31.0543 91.4941 31.0543C92.3903 31.0543 93.1457 31.3696 93.7603 32C94.3834 32.622 94.6949 33.393 94.6949 34.3131V34.6326H89.0614C89.0956 35.3057 89.3431 35.868 89.804 36.3195C90.2649 36.7711 90.8283 36.9968 91.4941 36.9968C92.2281 36.9968 92.8299 36.7625 93.2994 36.294C93.5213 36.0895 93.6877 35.8552 93.7987 35.5911H94.5669C94.4132 35.9915 94.1956 36.3451 93.9139 36.6518C93.2823 37.3504 92.4757 37.6997 91.4941 37.6997C90.5893 37.6997 89.8296 37.3845 89.2151 36.754ZM89.0614 33.9297H93.8627C93.7944 33.3078 93.5383 32.7924 93.0945 32.3834C92.6592 31.9659 92.1257 31.7572 91.4941 31.7572C90.8624 31.7572 90.3247 31.9617 89.8808 32.3706C89.437 32.7796 89.1638 33.2993 89.0614 33.9297Z" fill="#6B6B6B"/>
<path d="M96.7543 36.754C96.1482 36.115 95.8452 35.3227 95.8452 34.377C95.8452 33.4313 96.1482 32.6433 96.7543 32.0128C97.3688 31.3738 98.1114 31.0543 98.9821 31.0543C99.9978 31.0543 100.804 31.4292 101.402 32.1789C101.667 32.5027 101.863 32.8733 101.991 33.2908H101.223C101.103 32.9926 100.945 32.737 100.749 32.524C100.305 32.0128 99.7161 31.7572 98.9821 31.7572C98.3334 31.7572 97.7743 32.0085 97.3048 32.5112C96.8439 33.0053 96.6134 33.6273 96.6134 34.377C96.6134 35.1268 96.8439 35.753 97.3048 36.2556C97.7743 36.7498 98.3334 36.9968 98.9821 36.9968C99.7247 36.9968 100.331 36.7199 100.8 36.1662C101.022 35.9106 101.184 35.6337 101.287 35.3355H102.055C101.927 35.77 101.726 36.1662 101.453 36.524C100.804 37.3078 99.9807 37.6997 98.9821 37.6997C98.1114 37.6997 97.3688 37.3845 96.7543 36.754Z" fill="#6B6B6B"/>
<path d="M103.595 37.5719V28.6262H104.364V32.2684H104.376C104.53 31.9532 104.799 31.672 105.183 31.4249C105.576 31.1779 106.071 31.0543 106.668 31.0543C107.385 31.0543 107.97 31.3014 108.422 31.7956C108.875 32.2897 109.101 32.9585 109.101 33.8019V37.5719H108.333V33.8019C108.333 33.1459 108.17 32.6433 107.846 32.294C107.53 31.9361 107.095 31.7572 106.54 31.7572C105.926 31.7572 105.409 31.9745 104.991 32.409C104.573 32.8435 104.364 33.393 104.364 34.0575V37.5719H103.595Z" fill="#6B6B6B"/>
<path d="M115.072 36.754C114.466 36.115 114.163 35.3227 114.163 34.377C114.163 33.4313 114.466 32.6433 115.072 32.0128C115.686 31.3738 116.429 31.0543 117.299 31.0543C118.315 31.0543 119.122 31.4292 119.719 32.1789C119.984 32.5027 120.18 32.8733 120.308 33.2908H119.54C119.421 32.9926 119.263 32.737 119.066 32.524C118.622 32.0128 118.034 31.7572 117.299 31.7572C116.651 31.7572 116.092 32.0085 115.622 32.5112C115.161 33.0053 114.931 33.6273 114.931 34.377C114.931 35.1268 115.161 35.753 115.622 36.2556C116.092 36.7498 116.651 36.9968 117.299 36.9968C118.042 36.9968 118.648 36.7199 119.118 36.1662C119.339 35.9106 119.502 35.6337 119.604 35.3355H120.372C120.244 35.77 120.044 36.1662 119.771 36.524C119.122 37.3078 118.298 37.6997 117.299 37.6997C116.429 37.6997 115.686 37.3845 115.072 36.754Z" fill="#6B6B6B"/>
<path d="M122.399 36.754C121.776 36.1236 121.465 35.3312 121.465 34.377C121.465 33.4228 121.776 32.6305 122.399 32C123.022 31.3696 123.799 31.0543 124.729 31.0543C125.66 31.0543 126.437 31.3696 127.06 32C127.683 32.6305 127.994 33.4228 127.994 34.377C127.994 35.3312 127.683 36.1236 127.06 36.754C126.437 37.3845 125.66 37.6997 124.729 37.6997C123.799 37.6997 123.022 37.3845 122.399 36.754ZM122.95 32.4984C122.472 32.9926 122.233 33.6188 122.233 34.377C122.233 35.1353 122.472 35.7615 122.95 36.2556C123.428 36.7498 124.021 36.9968 124.729 36.9968C125.438 36.9968 126.031 36.7498 126.509 36.2556C126.987 35.7615 127.226 35.1353 127.226 34.377C127.226 33.6188 126.987 32.9926 126.509 32.4984C126.031 32.0043 125.438 31.7572 124.729 31.7572C124.021 31.7572 123.428 32.0043 122.95 32.4984Z" fill="#6B6B6B"/>
<path d="M129.59 37.5719V31.1821H130.358V32.2684H130.371C130.507 32.0384 130.674 31.8381 130.87 31.6678C131.331 31.2588 131.886 31.0543 132.535 31.0543C133.166 31.0543 133.7 31.2886 134.135 31.7572C134.314 31.9617 134.464 32.196 134.583 32.4601H134.647C134.75 32.2301 134.92 31.9958 135.159 31.7572C135.663 31.2886 136.282 31.0543 137.016 31.0543C137.673 31.0543 138.219 31.3014 138.655 31.7956C139.098 32.2897 139.32 32.9585 139.32 33.8019V37.5719H138.552V33.8019C138.552 33.1459 138.399 32.6433 138.091 32.294C137.792 31.9361 137.391 31.7572 136.888 31.7572C136.341 31.7572 135.863 31.9659 135.454 32.3834C135.044 32.7924 134.839 33.2865 134.839 33.8658V37.5719H134.071V33.8019C134.071 33.1459 133.917 32.6433 133.61 32.294C133.311 31.9361 132.91 31.7572 132.407 31.7572C131.86 31.7572 131.382 31.9659 130.973 32.3834C130.563 32.7924 130.358 33.2865 130.358 33.8658V37.5719H129.59Z" fill="#6B6B6B"/>
<path d="M141.243 40V31.1821H142.011V32.4601H142.024C142.16 32.1193 142.446 31.7998 142.882 31.5016C143.317 31.2034 143.838 31.0543 144.444 31.0543C145.297 31.0543 146.023 31.3738 146.62 32.0128C147.218 32.6433 147.517 33.4313 147.517 34.377C147.517 35.3227 147.218 36.115 146.62 36.754C146.023 37.3845 145.297 37.6997 144.444 37.6997C143.838 37.6997 143.317 37.5506 142.882 37.2524C142.446 36.9542 142.16 36.6347 142.024 36.294H142.011V40H141.243ZM142.715 32.5112C142.246 33.0053 142.011 33.6273 142.011 34.377C142.011 35.1268 142.246 35.753 142.715 36.2556C143.193 36.7498 143.748 36.9968 144.38 36.9968C145.028 36.9968 145.583 36.7498 146.044 36.2556C146.514 35.753 146.748 35.1268 146.748 34.377C146.748 33.6273 146.514 33.0053 146.044 32.5112C145.583 32.0085 145.028 31.7572 144.38 31.7572C143.748 31.7572 143.193 32.0085 142.715 32.5112Z" fill="#6B6B6B"/>
<path d="M149.568 36.754C148.971 36.115 148.672 35.3227 148.672 34.377C148.672 33.4313 148.971 32.6433 149.568 32.0128C150.166 31.3738 150.891 31.0543 151.745 31.0543C152.351 31.0543 152.863 31.2034 153.281 31.5016C153.699 31.7913 153.994 32.1108 154.165 32.4601H154.177V31.1821H154.946V37.5719H154.177V36.294H154.165C153.994 36.6433 153.699 36.967 153.281 37.2652C152.863 37.5549 152.351 37.6997 151.745 37.6997C150.891 37.6997 150.166 37.3845 149.568 36.754ZM150.131 32.5112C149.671 33.0053 149.44 33.6273 149.44 34.377C149.44 35.1268 149.671 35.753 150.131 36.2556C150.601 36.7498 151.16 36.9968 151.809 36.9968C152.44 36.9968 152.991 36.7498 153.46 36.2556C153.938 35.753 154.177 35.1268 154.177 34.377C154.177 33.6273 153.938 33.0053 153.46 32.5112C152.991 32.0085 152.44 31.7572 151.809 31.7572C151.16 31.7572 150.601 32.0085 150.131 32.5112Z" fill="#6B6B6B"/>
<path d="M156.997 37.5719V31.1821H157.765V32.2684H157.778C157.932 31.9532 158.201 31.672 158.585 31.4249C158.977 31.1779 159.472 31.0543 160.07 31.0543C160.787 31.0543 161.372 31.3014 161.824 31.7956C162.276 32.2897 162.503 32.9585 162.503 33.8019V37.5719H161.734V33.8019C161.734 33.1459 161.572 32.6433 161.248 32.294C160.932 31.9361 160.497 31.7572 159.942 31.7572C159.327 31.7572 158.811 31.9745 158.393 32.409C157.974 32.8435 157.765 33.393 157.765 34.0575V37.5719H156.997Z" fill="#6B6B6B"/>
<path d="M163.72 31.1821H164.552L166.024 36.869H167.241L168.905 31.1821H169.737L167.113 40H166.281L167.049 37.5719H165.448L163.72 31.1821Z" fill="#6B6B6B"/>
</svg>
